<svg width="29" height="20" viewBox="0 0 29 20" fill="none" xmlns="http://www.w3.org/2000/svg">
<path fill-rule="evenodd" clip-rule="evenodd" d="M-3.93458e-07 9.99996C-4.05051e-07 9.73474 0.105356 9.48039 0.292893 9.29285C0.480429 9.10531 0.734783 8.99996 1 8.99996L24.586 8.99996L18.292 2.70796C18.1042 2.52018 17.9987 2.26551 17.9987 1.99996C17.9987 1.73441 18.1042 1.47973 18.292 1.29196C18.4798 1.10418 18.7344 0.998695 19 0.998695C19.2655 0.998695 19.5202 1.10418 19.708 1.29196L27.708 9.29196C27.8011 9.38485 27.875 9.4952 27.9254 9.61669C27.9758 9.73818 28.0018 9.86842 28.0018 9.99996C28.0018 10.1315 27.9758 10.2617 27.9254 10.3832C27.875 10.5047 27.8011 10.6151 27.708 10.708L19.708 18.708C19.5202 18.8957 19.2656 19.0012 19 19.0012C18.7344 19.0012 18.4798 18.8957 18.292 18.708C18.1042 18.5202 17.9987 18.2655 17.9987 18C17.9987 17.7344 18.1042 17.4797 18.292 17.292L24.586 11L1 11C0.734783 11 0.480429 10.8946 0.292893 10.7071C0.105356 10.5195 -3.81865e-07 10.2652 -3.93458e-07 9.99996Z" fill="#181818"/>
</svg>
