<svg width="183" height="43" viewBox="0 0 183 43" fill="none" xmlns="http://www.w3.org/2000/svg">
<path d="M114.69 21.5437V21.4327C114.69 20.0408 115.813 18.9137 117.2 18.9137H126.434V12.0325H117.2C115.813 12.0325 114.69 10.9054 114.69 9.51355V0H107.832V43H114.69V33.4628C114.69 32.071 115.813 30.9438 117.2 30.9438H123.193C124.581 30.9438 125.704 32.071 125.704 33.4628V43H132.562V24.058L117.2 24.0627C115.813 24.0627 114.69 22.9355 114.69 21.5437Z" fill="white"/>
<path d="M174.451 30.9533V18.1953H167.593V21.5272C167.593 22.919 166.47 24.0462 165.083 24.0462H155.593V33.5975C155.593 34.9893 154.469 36.1165 153.082 36.1165H153.059C151.672 36.1165 150.548 34.9893 150.548 33.5975V30.3578H137.933V37.2389H141.124C142.511 37.2389 143.634 38.3661 143.634 39.7579V42.9976L162.448 42.9835V33.4628C162.448 32.071 163.574 30.9415 164.961 30.9438L174.449 30.9509L174.451 30.9533Z" fill="white"/>
<path d="M89.6273 43.0001H102.441V36.1166H98.9954C97.6083 36.1166 96.485 34.9894 96.485 33.5976V18.1978H71.7979V42.9954H78.6555V27.5955C78.6555 26.2037 79.7788 25.0765 81.1659 25.0765H87.1169C88.504 25.0765 89.6273 26.2037 89.6273 27.5955V43.0001Z" fill="white"/>
<path d="M36.5397 43V36.1189H33.1533C31.7662 36.1189 30.6429 34.9917 30.6429 33.5999V18.2024L0 18.1953V43H6.85767V27.6025C6.85767 26.2107 7.98099 25.0835 9.36807 25.0835H9.39633C10.7834 25.0835 11.9067 26.2107 11.9067 27.6025V36.8869H18.7644V27.6025C18.7644 26.2107 19.8877 25.0835 21.2748 25.0835C22.6619 25.0835 23.7852 26.2107 23.7852 27.6025V43H36.5397Z" fill="white"/>
<path d="M66.4453 42.993V18.1978H41.8994V42.9954H66.4453V42.993ZM48.7571 33.5929V27.6097C48.7571 26.2179 49.8804 25.0907 51.2675 25.0907H57.0772C58.4643 25.0907 59.5876 26.2179 59.5876 27.6097V33.5929C59.5876 34.9847 58.4643 36.1119 57.0772 36.1119H51.2675C49.8804 36.1119 48.7571 34.9847 48.7571 33.5929Z" fill="white"/>
<path d="M180.659 18.2095C179.366 18.2095 178.32 19.261 178.32 20.5512C178.32 21.8414 179.368 22.8977 180.659 22.8977C181.949 22.8977 182.997 21.8462 182.997 20.5512C182.997 19.2563 181.949 18.2095 180.659 18.2095ZM180.659 22.4629C179.625 22.4629 178.784 21.6075 178.784 20.5512C178.784 19.495 179.625 18.6443 180.659 18.6443C181.693 18.6443 182.533 19.4997 182.533 20.5512C182.533 21.6028 181.693 22.4629 180.659 22.4629Z" fill="white"/>
<path d="M181.829 20.0433C181.829 19.5305 181.488 19.1997 180.944 19.1997H179.71V21.7801H180.195V20.8845H180.822L181.285 21.7849H181.841L181.293 20.8255C181.615 20.7073 181.829 20.4096 181.829 20.0409V20.0433ZM180.951 20.4379H180.195V19.6463H180.951C181.196 19.6463 181.351 19.7503 181.351 20.0409C181.351 20.3316 181.151 20.4379 180.951 20.4379Z" fill="white"/>
</svg>
