<svg width="15" height="11" viewBox="0 0 15 11" fill="none" xmlns="http://www.w3.org/2000/svg">
<path d="M13.5938 0H1.40625C0.630762 0 0 0.616745 0 1.375V9.625C0 10.3833 0.630762 11 1.40625 11H13.5938C14.3692 11 15 10.3833 15 9.625V1.375C15 0.616745 14.3692 0 13.5938 0ZM13.5938 0.916667C13.6573 0.916667 13.718 0.929557 13.7733 0.952188L7.5 6.26857L1.22666 0.952188C1.28203 0.929557 1.34268 0.916667 1.40625 0.916667H13.5938ZM13.5938 10.0833H1.40625C1.14756 10.0833 0.9375 9.87794 0.9375 9.625V1.9207L7.19297 7.22133C7.28145 7.29609 7.39072 7.33333 7.5 7.33333C7.60928 7.33333 7.71885 7.29609 7.80703 7.22133L14.0625 1.9207V9.625C14.0625 9.87794 13.8524 10.0833 13.5938 10.0833Z" fill="black"/>
</svg>
