<svg width="24" height="24" viewBox="0 0 24 24" fill="none" xmlns="http://www.w3.org/2000/svg">
<path fill-rule="evenodd" clip-rule="evenodd" d="M11.9244 1.86133C18.041 1.86133 23.0002 6.8206 23.0002 12.9371C23.0002 18.4665 18.9506 23.0488 13.6549 23.879V16.1395H16.2358L16.7264 12.9371L16.7263 12.9371L13.6549 12.9371V10.8594C13.6549 9.98244 14.0848 9.1289 15.4601 9.1289H16.8572V6.40317C16.8572 6.40317 16.6789 6.37273 16.3922 6.33467C15.9142 6.27124 15.135 6.18667 14.3776 6.18667C14.3776 6.18667 14.3775 6.18667 14.3775 6.18667C11.848 6.18667 10.1939 7.71931 10.1939 10.4964V12.9371H7.38096V16.1395L7.38104 16.1395L10.1939 16.1395V23.879C4.89825 23.0472 0.848633 18.4649 0.848633 12.9371C0.848633 6.8206 5.8079 1.86133 11.9244 1.86133Z" fill="black"/>
</svg>
