<svg width="24" height="24" viewBox="0 0 24 24" fill="none" xmlns="http://www.w3.org/2000/svg">
<g clip-path="url(#clip0_118_24)">
<path d="M22.944 7.46826C22.8923 6.29937 22.7033 5.49558 22.4325 4.79941C22.153 4.0602 21.7232 3.39847 21.16 2.84826C20.6097 2.28943 19.9435 1.85546 19.2128 1.58035C18.5122 1.30955 17.7125 1.12055 16.5434 1.06888C15.3657 1.01292 14.9915 1 12.0039 1C9.01628 1 8.64251 1.01292 7.46909 1.06458C6.29998 1.11624 5.49603 1.30524 4.79973 1.57605C4.06036 1.85546 3.39851 2.28513 2.84819 2.84826C2.28925 3.39847 1.8552 4.0645 1.58004 4.79511C1.30961 5.49558 1.12057 6.29464 1.0689 7.46352C1.01292 8.64102 1 9.01515 1 12.0022C1 14.9892 1.01292 15.3629 1.06459 16.536C1.11627 17.7049 1.3053 18.5087 1.57616 19.2049C1.85563 19.9441 2.28968 20.6058 2.84862 21.156C3.39894 21.7149 4.0651 22.1488 4.79585 22.424C5.49646 22.6948 6.2961 22.8838 7.46522 22.9354C8.63864 22.9871 9.01284 23 12 23C14.9872 23 15.3614 22.9871 16.5348 22.9354C17.7039 22.8838 18.5078 22.6948 19.2041 22.424C20.6829 21.8522 21.852 20.6833 22.4238 19.2049C22.6947 18.5044 22.8837 17.7049 22.9354 16.536C22.9871 15.3629 23 14.9887 23 12.0022C23 9.01558 22.9957 8.64145 22.944 7.46826ZM20.9623 16.4504C20.915 17.525 20.7345 18.1049 20.5838 18.4919C20.2139 19.4503 19.4535 20.211 18.4945 20.5809C18.1078 20.7311 17.523 20.9119 16.4525 20.9589C15.292 21.0105 14.9437 21.0234 12.0078 21.0234C9.07183 21.0234 8.71916 21.0105 7.56297 20.9589C6.48816 20.9115 5.90812 20.7311 5.521 20.5809C5.04388 20.4048 4.60983 20.1254 4.25715 19.7598C3.89156 19.4029 3.61253 18.9733 3.43598 18.4962C3.28569 18.1096 3.10483 17.525 3.0579 16.4547C3.00622 15.2944 2.99331 14.9461 2.99331 12.0108C2.99331 9.07542 3.00622 8.72282 3.0579 7.56685C3.10527 6.49225 3.28569 5.91233 3.43598 5.52528C3.6121 5.04826 3.89156 4.61429 4.26146 4.26168C4.61801 3.89616 5.04776 3.61718 5.52531 3.4411C5.912 3.29084 6.49677 3.11002 7.56727 3.06266C8.72777 3.011 9.07614 2.99808 12.0121 2.99808C14.948 2.99808 15.3006 3.011 16.4568 3.06266C17.5317 3.11002 18.1117 3.29041 18.4988 3.4411C18.9759 3.61718 19.41 3.8966 19.7627 4.26168C20.1282 4.61859 20.4073 5.04826 20.5838 5.52528C20.7341 5.9119 20.915 6.49656 20.9623 7.56685C21.014 8.72712 21.0269 9.07542 21.0269 12.0108C21.0269 14.9461 21.014 15.2901 20.9623 16.4504Z" fill="black"/>
<path d="M12.0042 6.35059C8.88356 6.35059 6.35156 8.88166 6.35156 12.0021C6.35156 15.1226 8.88356 17.6537 12.0042 17.6537C15.1249 17.6537 17.6569 15.1226 17.6569 12.0021C17.6569 8.88166 15.1253 6.35059 12.0042 6.35059ZM12.0042 15.6681C9.9799 15.6681 8.33755 14.0265 8.33755 12.0021C8.33755 9.97779 9.9799 8.33618 12.0042 8.33618C14.0285 8.33618 15.6709 9.97779 15.6709 12.0021C15.6709 14.0265 14.029 15.6681 12.0042 15.6681Z" fill="black"/>
<path d="M19.2002 6.12719C19.2002 6.85564 18.6094 7.44676 17.8804 7.44676C17.1513 7.44676 16.5605 6.85607 16.5605 6.12719C16.5605 5.3983 17.1513 4.80762 17.8804 4.80762C18.6094 4.80762 19.2002 5.3983 19.2002 6.12719Z" fill="black"/>
</g>
<defs>
<clipPath id="clip0_118_24">
<rect width="22" height="22" fill="white" transform="translate(1 1)"/>
</clipPath>
</defs>
</svg>
