<svg width="24" height="24" viewBox="0 0 24 24" fill="none" xmlns="http://www.w3.org/2000/svg">
<path d="M19.1735 6.55857C19.0297 6.48422 18.8896 6.40271 18.7539 6.31435C18.3593 6.05345 17.9974 5.74604 17.6762 5.39873C16.8725 4.47911 16.5723 3.54617 16.4617 2.89298H16.4662C16.3738 2.3508 16.412 2 16.4178 2H12.7571V16.1553C12.7571 16.3453 12.7571 16.5332 12.7491 16.7188C12.7491 16.7419 12.7469 16.7632 12.7455 16.7881C12.7455 16.7983 12.7455 16.8089 12.7433 16.8196C12.7433 16.8222 12.7433 16.8249 12.7433 16.8276C12.7047 17.3355 12.5419 17.8261 12.2692 18.2563C11.9965 18.6865 11.6222 19.0431 11.1794 19.2947C10.7178 19.5573 10.1958 19.695 9.66473 19.6943C7.95915 19.6943 6.57684 18.3036 6.57684 16.586C6.57684 14.8684 7.95915 13.4777 9.66473 13.4777C9.98759 13.4774 10.3085 13.5282 10.6154 13.6282L10.6199 9.9009C9.68798 9.78053 8.74126 9.85459 7.83942 10.1184C6.93759 10.3822 6.10022 10.8301 5.38013 11.4338C4.74917 11.982 4.21872 12.6361 3.81265 13.3667C3.65813 13.6331 3.07509 14.7037 3.00449 16.4413C2.96009 17.4275 3.25626 18.4492 3.39747 18.8715V18.8804C3.48628 19.1291 3.83042 19.9776 4.39124 20.693C4.84348 21.2668 5.37778 21.7709 5.97693 22.189V22.1801L5.98581 22.189C7.758 23.3932 9.7229 23.3142 9.7229 23.3142C10.063 23.3004 11.2025 23.3142 12.4964 22.701C13.9316 22.0211 14.7486 21.0083 14.7486 21.0083C15.2706 20.4031 15.6856 19.7134 15.976 18.9688C16.3072 18.098 16.4178 17.0536 16.4178 16.6362V9.12649C16.4622 9.15313 17.0537 9.54434 17.0537 9.54434C17.0537 9.54434 17.9058 10.0905 19.2352 10.4462C20.1891 10.6993 21.4741 10.7526 21.4741 10.7526V7.11852C21.0239 7.16736 20.1096 7.02527 19.1735 6.55857Z" fill="black"/>
</svg>
