<svg width="24" height="24" viewBox="0 0 24 24" fill="none" xmlns="http://www.w3.org/2000/svg">
<path d="M24.0004 5.60306C23.1229 5.99231 22.1797 6.25527 21.19 6.37357C22.2002 5.76799 22.9762 4.80906 23.3415 3.66636C22.3959 4.22722 21.3487 4.63435 20.2341 4.85378C19.3416 3.90272 18.0698 3.30859 16.6624 3.30859C13.9601 3.30859 11.769 5.49943 11.769 8.20174C11.769 8.58527 11.8123 8.95878 11.8958 9.3169C7.82892 9.11286 4.22336 7.1647 1.80988 4.2042C1.38867 4.92688 1.1473 5.76739 1.1473 6.66419C1.1473 8.36191 2.01118 9.85963 3.32418 10.7371C2.52207 10.7117 1.76754 10.4916 1.10783 10.1251C1.10727 10.1455 1.10727 10.166 1.10727 10.1866C1.10727 12.5574 2.79401 14.535 5.03255 14.9848C4.62195 15.0967 4.18965 15.1565 3.7434 15.1565C3.42809 15.1565 3.12161 15.1257 2.82276 15.0687C3.44551 17.0127 5.25257 18.4274 7.39392 18.4667C5.71922 19.7793 3.60936 20.5616 1.31668 20.5616C0.921709 20.5616 0.532223 20.5383 0.149414 20.4931C2.31497 21.8816 4.88706 22.6917 7.65043 22.6917C16.651 22.6917 21.573 15.2355 21.573 8.76904C21.573 8.55689 21.5682 8.34592 21.5588 8.13592C22.5147 7.44614 23.3443 6.58441 24.0003 5.60306H24.0004Z" fill="black"/>
</svg>
