<svg width="11" height="20" viewBox="0 0 11 20" fill="none" xmlns="http://www.w3.org/2000/svg">
<path d="M0 2.10491C0 0.942184 0.901226 0 2.0134 0H8.98622C10.0984 0 11 0.942184 11 2.10491V17.8951C11 19.0578 10.0984 20 8.98622 20H2.0134C0.901226 20 0 19.0578 0 17.8951V2.10491ZM10.0436 3.64986H0.956738V15.2999H10.0436V3.64986ZM8.99617 0.99982H2.00383C1.42113 0.99982 0.956738 1.50773 0.956738 2.11691V2.64964H10.0436V2.11691C10.0436 1.50773 9.57887 0.99982 8.99617 0.99982ZM2.00383 18.9998H8.99617C9.57083 19.0042 10.0394 18.5203 10.0436 17.9199V16.3001H0.956738V17.9071C0.954059 18.5079 1.4173 18.997 1.99158 18.9998H2.00383Z" fill="black"/>
<path d="M4.56394 17.1498H6.43607C6.70023 17.1498 6.91425 17.3735 6.91425 17.6497C6.91425 17.9259 6.70023 18.1496 6.43607 18.1496H4.56394C4.29977 18.1496 4.08576 17.9259 4.08576 17.6497C4.08576 17.3735 4.29977 17.1498 4.56394 17.1498Z" fill="black"/>
</svg>